<svg width="5" height="20" viewBox="0 0 5 20" fill="none" xmlns="http://www.w3.org/2000/svg">
<path d="M1.40449 6.32434V19.5675H4.40473V6.32434H1.40449Z" fill="#191919"/>
<path d="M4.91086 2.02439C4.91532 2.28993 4.86621 2.55364 4.76645 2.79977C4.66669 3.0459 4.51833 3.26939 4.33025 3.45689C4.14785 3.64907 3.92743 3.80116 3.68303 3.9035C3.43864 4.00583 3.17561 4.05615 2.9107 4.05127V4.05127V-6.73094e-05C3.17558 -0.0047515 3.43855 0.0456654 3.68292 0.147985C3.92729 0.250305 4.14773 0.402295 4.33025 0.594313C4.51792 0.78161 4.66603 1.00472 4.76578 1.25039C4.86552 1.49606 4.91486 1.75927 4.91086 2.02439V2.02439Z" fill="#35AF39"/>
<path d="M2.90826 -3.36878e-05V4.05374C2.63993 4.05993 2.37324 4.0103 2.12511 3.90798C1.87698 3.80566 1.65282 3.65289 1.46685 3.45936C1.27788 3.27189 1.1288 3.04811 1.0286 2.80151C0.928401 2.5549 0.879147 2.29057 0.883805 2.02442C0.87999 1.75912 0.929649 1.49576 1.02982 1.25006C1.12999 1.00436 1.27862 0.781357 1.46685 0.594346C1.65306 0.401131 1.87726 0.248571 2.12534 0.146275C2.37341 0.0439784 2.63998 -0.00583703 2.90826 -3.36878e-05V-3.36878e-05Z" fill="#00BAFC"/>
</svg>
